<svg xmlns="http://www.w3.org/2000/svg" xmlns:xlink="http://www.w3.org/1999/xlink" width="534.995" height="161.696" viewBox="0 0 534.995 161.696">
  <defs>
    <linearGradient id="linear-gradient" x2="0.801" y2="0.746" gradientUnits="objectBoundingBox">
      <stop offset="0" stop-color="#69beeb"/>
      <stop offset="1" stop-color="#007cc3"/>
    </linearGradient>
  </defs>
  <g id="TFTai-logo" transform="translate(-427.174 -255.735)">
    <g id="Group_651" data-name="Group 651" transform="translate(124.707 187.95)">
      <g id="Group_650" data-name="Group 650" transform="translate(31.245 30.834)">
        <g id="Group_649" data-name="Group 649" transform="translate(619.476 36.951)">
          <g id="Group_648" data-name="Group 648" transform="translate(2.088)">
            <path id="Path_15254" data-name="Path 15254" d="M208.514,218.86a7.289,7.289,0,0,0,2.336,5.612,8.426,8.426,0,0,0,5.989,2.148,14.15,14.15,0,0,0,7.88-2.036,12.835,12.835,0,0,0,4.483-4.594V206.951h-7.392Q208.514,206.951,208.514,218.86Z" transform="translate(-144.348 -112.173)"/>
            <path id="Path_15255" data-name="Path 15255" d="M370.409,195.873H216.265a15.3,15.3,0,0,0-15.255,15.246V328.945a19.053,19.053,0,0,1,24.221,1.711,18.266,18.266,0,0,1,5.236,13.483,18.557,18.557,0,0,1-3.944,11.892H370.409a15.3,15.3,0,0,0,15.254-15.246V211.119a15.3,15.3,0,0,0-15.255-15.246ZM314.8,326.9H289.405a28.587,28.587,0,0,1-2.412-7.306,23.6,23.6,0,0,1-19.592,8.812,28.928,28.928,0,0,1-19.592-6.973,22.141,22.141,0,0,1-8.068-17.513,22.8,22.8,0,0,1,9.8-20.046,49.871,49.871,0,0,1,28.49-6.785h7.837v-4.278q0-11.293-9.728-11.285a7.939,7.939,0,0,0-9.034,8.941H241.7a22.767,22.767,0,0,1,10.061-19.2,42.274,42.274,0,0,1,25.667-7.375,37.044,37.044,0,0,1,24.64,7.606,26.471,26.471,0,0,1,9.274,20.875v36.1a36.892,36.892,0,0,0,3.422,17.18Zm37.37,0H326.69V245.367h25.47Zm-3.576-93.665a14.228,14.228,0,0,1-18.608,0,12.833,12.833,0,0,1,0-17.787,14.228,14.228,0,0,1,18.608,0A12.833,12.833,0,0,1,348.592,233.235Z" transform="translate(-201.01 -195.873)"/>
          </g>
          <path id="Path_15256" data-name="Path 15256" d="M213.891,211.642a12.731,12.731,0,0,1,9.411,3.773,14.279,14.279,0,0,1,0,19.284,12.723,12.723,0,0,1-9.411,3.764,12.594,12.594,0,0,1-9.411-3.807,14.262,14.262,0,0,1,0-19.2A12.592,12.592,0,0,1,213.891,211.642Z" transform="translate(-200.766 -76.773)" fill="#009adc"/>
        </g>
        <g id="Group_2" data-name="Group 2" transform="translate(-16.138 15.363)">
          <path id="Path_181" data-name="Path 181" d="M919.4,303.544V420.7H868.885V303.544H832.867v-41.69H955.418v.09h87.433v-.09H1165.4v41.69h-36.018V420.7h-50.515V303.544h-54.474V420.7H973.879V303.544Z" transform="translate(-545.506 -240.266)"/>
          <path id="Path_182" data-name="Path 182" d="M1044.633,456.932h50.425V420.821h36.2V370.307h-86.623Z" transform="translate(-616.263 -276.503)" fill="#007cc3" fill-rule="evenodd"/>
          <path id="Path_207" data-name="Path 207" d="M1048.915,456.395h45.2V420.2h35.837V375.175h-81.13v80.86" transform="translate(-617.664 -278.129)" fill="url(#linear-gradient)"/>
        </g>
      </g>
    </g>
  </g>
</svg>
