<svg xmlns="http://www.w3.org/2000/svg" xmlns:xlink="http://www.w3.org/1999/xlink" width="360.445" height="407.308" viewBox="0 0 360.445 407.308">
  <defs>
    <linearGradient id="linear-gradient" x1="1.842" y1="1.238" x2="1.842" y2="0.238" gradientUnits="objectBoundingBox">
      <stop offset="0" stop-color="gray" stop-opacity="0.251"/>
      <stop offset="0.535" stop-color="gray" stop-opacity="0.122"/>
      <stop offset="1" stop-color="gray" stop-opacity="0.102"/>
    </linearGradient>
  </defs>
  <g id="undraw_Design_process_68d0" transform="translate(-0.004 -0.002)">
    <path id="Path_116" data-name="Path 116" d="M4.5,0h109.47a4.5,4.5,0,0,1,4.5,4.5V209.341a4.5,4.5,0,0,1-4.5,4.5H4.5a4.5,4.5,0,0,1-4.5-4.5V4.5A4.5,4.5,0,0,1,4.5,0Z" transform="translate(0 0)" fill="url(#linear-gradient)"/>
    <rect id="Rectangle_25" data-name="Rectangle 25" width="115.267" height="208.059" rx="13.635" transform="translate(1.605 2.892)" fill="#fff"/>
    <path id="Path_117" data-name="Path 117" d="M372.908,104.159a9.345,9.345,0,0,1-9.21,7.948H323.885a9.345,9.345,0,0,1-9.21-7.948H293.586a4.378,4.378,0,0,0-4.378,4.378l0,188.871a4.378,4.378,0,0,0,4.378,4.378l100.732,0a4.378,4.378,0,0,0,4.378-4.378l0-188.871a4.378,4.378,0,0,0-4.378-4.378Z" transform="translate(-284.711 -96.051)" fill="#fafafa"/>
    <rect id="Rectangle_26" data-name="Rectangle 26" width="25.686" height="1.605" rx="0.803" transform="translate(46.558 10.598)" fill="#dbdbdb"/>
    <circle id="Ellipse_43" data-name="Ellipse 43" cx="0.963" cy="0.963" r="0.963" transform="translate(76.74 10.277)" fill="#dbdbdb"/>
    <path id="Path_118" data-name="Path 118" d="M408.358,175.233h109.47a4.5,4.5,0,0,1,4.5,4.5V384.572a4.5,4.5,0,0,1-4.5,4.5H408.358a4.5,4.5,0,0,1-4.5-4.5V179.733A4.5,4.5,0,0,1,408.358,175.233Z" transform="translate(-175.504 -76.151)" fill="url(#linear-gradient)"/>
    <rect id="Rectangle_27" data-name="Rectangle 27" width="115.267" height="208.059" rx="13.635" transform="translate(229.955 101.972)" fill="#fff"/>
    <path id="Path_119" data-name="Path 119" d="M776.763,279.39a9.345,9.345,0,0,1-9.21,7.948H727.739a9.345,9.345,0,0,1-9.21-7.949H697.441a4.378,4.378,0,0,0-4.378,4.378l0,188.871a4.378,4.378,0,0,0,4.378,4.378l100.732,0a4.378,4.378,0,0,0,4.378-4.378l0-188.871a4.378,4.378,0,0,0-4.378-4.378Z" transform="translate(-460.215 -172.201)" fill="#fafafa"/>
    <rect id="Rectangle_28" data-name="Rectangle 28" width="25.686" height="1.605" rx="0.803" transform="translate(274.909 109.678)" fill="#dbdbdb"/>
    <circle id="Ellipse_44" data-name="Ellipse 44" cx="0.963" cy="0.963" r="0.963" transform="translate(305.09 109.358)" fill="#dbdbdb"/>
    <g id="Group_25" data-name="Group 25" transform="translate(247.346 138.687)" opacity="0.8">
      <path id="Path_120" data-name="Path 120" d="M493.325,291.914v3.393h-3.393" transform="translate(-460.255 -265.544)" fill="none" stroke="#0fabff" stroke-miterlimit="10" stroke-width="2"/>
      <line id="Line_5" data-name="Line 5" x1="18.399" transform="translate(6.021 29.763)" fill="none" stroke="#0fabff" stroke-miterlimit="10" stroke-width="2" stroke-dasharray="9.297 9.297"/>
      <path id="Path_121" data-name="Path 121" d="M440.839,295.307h-3.393v-3.393" transform="translate(-437.446 -265.544)" fill="none" stroke="#0fabff" stroke-miterlimit="10" stroke-width="2"/>
      <line id="Line_6" data-name="Line 6" y1="11.489" transform="translate(0 7.222)" fill="none" stroke="#0fabff" stroke-miterlimit="10" stroke-width="2" stroke-dasharray="13.546 13.546"/>
      <path id="Path_122" data-name="Path 122" d="M437.446,248.669v-3.393h3.393" transform="translate(-437.446 -245.276)" fill="none" stroke="#0fabff" stroke-miterlimit="10" stroke-width="2"/>
      <line id="Line_7" data-name="Line 7" x2="18.399" transform="translate(8.649 0)" fill="none" stroke="#0fabff" stroke-miterlimit="10" stroke-width="2" stroke-dasharray="9.297 9.297"/>
      <path id="Path_123" data-name="Path 123" d="M489.932,245.276h3.393v3.393" transform="translate(-460.255 -245.276)" fill="none" stroke="#0fabff" stroke-miterlimit="10" stroke-width="2"/>
      <line id="Line_8" data-name="Line 8" y2="11.489" transform="translate(33.07 11.052)" fill="none" stroke="#0fabff" stroke-miterlimit="10" stroke-width="2" stroke-dasharray="13.546 13.546"/>
    </g>
    <g id="Group_26" data-name="Group 26" transform="translate(296.583 251.124)" opacity="0.8">
      <path id="Path_124" data-name="Path 124" d="M580.4,490.767v3.393h-3.393" transform="translate(-547.334 -464.397)" fill="none" stroke="#0fabff" stroke-miterlimit="10" stroke-width="2"/>
      <line id="Line_9" data-name="Line 9" x1="18.399" transform="translate(6.021 29.763)" fill="none" stroke="#0fabff" stroke-miterlimit="10" stroke-width="2" stroke-dasharray="9.297 9.297"/>
      <path id="Path_125" data-name="Path 125" d="M527.918,494.16h-3.393v-3.393" transform="translate(-524.525 -464.397)" fill="none" stroke="#0fabff" stroke-miterlimit="10" stroke-width="2"/>
      <line id="Line_10" data-name="Line 10" y1="11.489" transform="translate(0 7.222)" fill="none" stroke="#0fabff" stroke-miterlimit="10" stroke-width="2" stroke-dasharray="13.546 13.546"/>
      <path id="Path_126" data-name="Path 126" d="M524.525,447.523V444.13h3.393" transform="translate(-524.525 -444.13)" fill="none" stroke="#0fabff" stroke-miterlimit="10" stroke-width="2"/>
      <line id="Line_11" data-name="Line 11" x2="18.399" transform="translate(8.65)" fill="none" stroke="#0fabff" stroke-miterlimit="10" stroke-width="2" stroke-dasharray="9.297 9.297"/>
      <path id="Path_127" data-name="Path 127" d="M577.011,444.13H580.4v3.393" transform="translate(-547.334 -444.13)" fill="none" stroke="#0fabff" stroke-miterlimit="10" stroke-width="2"/>
      <line id="Line_12" data-name="Line 12" y2="11.489" transform="translate(33.07 11.052)" fill="none" stroke="#0fabff" stroke-miterlimit="10" stroke-width="2" stroke-dasharray="13.546 13.546"/>
    </g>
    <g id="Group_27" data-name="Group 27" transform="translate(247.162 184.066)" opacity="0.8">
      <line id="Line_13" data-name="Line 13" x2="82.674" fill="none" stroke="#0fabff" stroke-miterlimit="10" stroke-width="2" stroke-dasharray="12"/>
      <line id="Line_14" data-name="Line 14" x2="82.674" transform="translate(0 16.535)" fill="none" stroke="#0fabff" stroke-miterlimit="10" stroke-width="2" stroke-dasharray="12"/>
      <line id="Line_15" data-name="Line 15" x2="82.674" transform="translate(0 33.07)" fill="none" stroke="#0fabff" stroke-miterlimit="10" stroke-width="2" stroke-dasharray="12"/>
      <line id="Line_16" data-name="Line 16" x2="82.674" transform="translate(0 49.605)" fill="none" stroke="#0fabff" stroke-miterlimit="10" stroke-width="2" stroke-dasharray="12"/>
    </g>
    <path id="Path_128" data-name="Path 128" d="M232.953,40.713H389.576V98.387" transform="translate(-101.233 -17.692)" fill="none" stroke="#3ad29f" stroke-miterlimit="10" stroke-width="2" stroke-dasharray="12"/>
    <path id="Path_129" data-name="Path 129" d="M104.477,438.356v106.3H332.91V526.563" transform="translate(-45.401 -190.496)" fill="none" stroke="#3ad29f" stroke-miterlimit="10" stroke-width="2" stroke-dasharray="12"/>
    <rect id="Rectangle_29" data-name="Rectangle 29" width="5.089" height="5.089" transform="translate(116.184 290.267)" fill="#f55f44" opacity="0.5"/>
    <rect id="Rectangle_30" data-name="Rectangle 30" width="5.089" height="5.089" transform="translate(256.41 32.997)" fill="#f55f44" opacity="0.5"/>
    <rect id="Rectangle_31" data-name="Rectangle 31" width="5.089" height="5.089" transform="translate(65.296 254.645)" fill="#f55f44" opacity="0.5"/>
    <rect id="Rectangle_32" data-name="Rectangle 32" width="5.089" height="5.089" transform="translate(111.095 381.866)" fill="#f55f44" opacity="0.5"/>
    <rect id="Rectangle_33" data-name="Rectangle 33" width="5.089" height="5.089" transform="translate(238.316 402.222)" fill="#f55f44" opacity="0.5"/>
    <rect id="Rectangle_34" data-name="Rectangle 34" width="11.089" height="11.089" transform="translate(171.988 172.485)" fill="#f55f44" opacity="0.5"/>
    <rect id="Rectangle_35" data-name="Rectangle 35" width="5.089" height="5.089" transform="translate(316.911 333.805)" fill="#f55f44" opacity="0.5"/>
    <rect id="Rectangle_36" data-name="Rectangle 36" width="5.089" height="5.089" transform="translate(355.36 56.18)" fill="#f55f44" opacity="0.5"/>
  </g>
</svg>
