<svg xmlns="http://www.w3.org/2000/svg" width="694.422" height="513.481" viewBox="0 0 694.422 513.481">
  <g id="undraw_innovative_b409" transform="translate(0)">
    <circle id="Ellipse_45" data-name="Ellipse 45" cx="95.622" cy="95.622" r="95.622" transform="translate(196.393 105.292)" fill="#0fabff"/>
    <path id="Path_133" data-name="Path 133" d="M507.319,412.819a96.358,96.358,0,1,1,96.358-96.358A96.467,96.467,0,0,1,507.319,412.819Zm0-191.245a94.887,94.887,0,1,0,94.887,94.887,94.887,94.887,0,0,0-94.887-94.887Z" transform="translate(-202.799 -132.465)" fill="#3f3d56"/>
    <path id="Path_134" data-name="Path 134" d="M724.5,425.337H127.961V100.957H724.5Zm-595.065-1.471H723.026V102.428H129.432Z" transform="translate(-127.961 -100.957)" fill="#3f3d56"/>
    <rect id="Rectangle_38" data-name="Rectangle 38" width="130" height="12" transform="translate(20.504 26.3)" fill="#f2f2f2"/>
    <rect id="Rectangle_39" data-name="Rectangle 39" width="131" height="12" transform="translate(216.504 26.3)" fill="#f2f2f2"/>
    <rect id="Rectangle_40" data-name="Rectangle 40" width="130" height="12" transform="translate(413.504 26.3)" fill="#f2f2f2"/>
    <path id="Path_135" data-name="Path 135" d="M297.361,140.668h-132.4V125.957h132.4ZM166.432,139.2H295.89V127.428H166.432Z" transform="translate(-137.745 -107.568)" fill="#3f3d56"/>
    <path id="Path_136" data-name="Path 136" d="M564.361,140.668h-132.4V125.957h132.4ZM433.432,139.2H562.89V127.428H433.432Z" transform="translate(-208.352 -107.568)" fill="#3f3d56"/>
    <path id="Path_137" data-name="Path 137" d="M831.361,140.668h-132.4V125.957h132.4ZM700.432,139.2H829.89V127.428H700.432Z" transform="translate(-278.959 -107.568)" fill="#3f3d56"/>
    <rect id="Rectangle_41" data-name="Rectangle 41" width="608.749" height="1.879" transform="translate(85.673 502.192)" fill="#2f2e41"/>
    <path id="Path_138" data-name="Path 138" d="M393.5,451.238,439.84,361.5l12.5,7.356-52.96,86.06Z" transform="translate(-104.059 -95.597)" fill="#3f3d56"/>
    <path id="Path_139" data-name="Path 139" d="M483.9,602.738s8.541,6.711,9.511-7.648a16.469,16.469,0,0,1,5.992-11.835c3.867-3.09,9.433-5.2,16.126-1.113a13.888,13.888,0,0,1,6.971,13.626,20.941,20.941,0,0,1-10.469,16.369c-6.64,3.941-17.122,6.908-28.131-2.78C483.9,609.358,477.283,602,483.9,602.738Z" transform="translate(-221.31 -227.605)" fill="#0fabff"/>
    <circle id="Ellipse_46" data-name="Ellipse 46" cx="17.849" cy="17.849" r="17.849" transform="translate(326.683 126.89)" fill="#ffb8b8"/>
    <path id="Path_140" data-name="Path 140" d="M583.586,307.517s4.7,24.425,2.818,29.122,26.3-1.879,26.3-1.879-5.637-24.425-4.7-30.062S583.586,307.517,583.586,307.517Z" transform="translate(-248.448 -154.323)" fill="#ffb8b8"/>
    <path id="Path_141" data-name="Path 141" d="M413.479,323.215l1.879,25.364,9.325,39.835,2.888,10.9,4.7-16.91-4.7-38.517-1.6-17.341Z" transform="translate(-109.342 -85.472)" fill="#ffb8b8"/>
    <path id="Path_142" data-name="Path 142" d="M669.8,419.063v26.3s-2.818,33.819-8.455,42.274-7.515-33.819-7.515-33.819l4.417-31Z" transform="translate(-267.024 -185.078)" fill="#ffb8b8"/>
    <path id="Path_143" data-name="Path 143" d="M561.013,529.037s-4.7,5.637-.939,62.942-1.879,98.64,10.334,98.64c0,0-3.758,12.213,6.576,13.152s15.031,1.879,15.97-.939,2.818-15.97,0-15.97c0,0,0,3.758,1.879-11.273s1.879-86.427,6.576-95.822l15.031,34.759s0,15.97,2.818,23.486,7.515,50.729,7.515,50.729l-.939,6.576s22.546,3.758,23.486,0,.939-9.394,0-11.273-.939-1.879.939-5.636,1.879-6.576.94-9.394-.94-63.881-.94-63.881-1.879-74.215-13.152-77.973S561.013,529.037,561.013,529.037Z" transform="translate(-241.845 -213.322)" fill="#2f2e41"/>
    <path id="Path_144" data-name="Path 144" d="M572.286,757.513l-7.515,13.152s-11.743-4.227-9.394,6.576a187.731,187.731,0,0,0,34.289-.47s4.7,1.879,5.637-.939-2.349-12.682-5.167-12.682S572.286,757.513,572.286,757.513Z" transform="translate(-240.906 -274.579)" fill="#2f2e41"/>
    <path id="Path_145" data-name="Path 145" d="M650.637,751.148s-7.515,16.91-4.7,17.849,28.183,4.7,30.062,5.637,11.273,1.879,12.213-3.758-4.7-7.516-4.7-7.516-10.334-1.879-13.152-11.273S650.637,751.148,650.637,751.148Z" transform="translate(-264.77 -271.972)" fill="#2f2e41"/>
    <path id="Path_146" data-name="Path 146" d="M604.117,341.683s-25.365-4.7-31,0-29.122,14.091-29.122,18.789S556.206,411.2,556.206,411.2s-6.576,69.518,0,71.4,17.849-3.758,31,2.818,50.729-5.637,50.729-5.637-14.091-60.123-10.334-71.4,6.576-49.79,6.576-49.79S618.209,341.683,604.117,341.683Z" transform="translate(-237.978 -164.064)" fill="#8985a8"/>
    <path id="Path_147" data-name="Path 147" d="M547.052,364.145l-6.576,1.879s-14.091,44.153-8.455,46.032,21.607,5.637,23.486,5.637S547.052,364.145,547.052,364.145Z" transform="translate(-234.46 -170.556)" fill="#8985a8"/>
    <path id="Path_148" data-name="Path 148" d="M646.167,357.759,661.2,363.4s19.728,36.638,15.031,41.335-25.365,9.394-25.365,9.394Z" transform="translate(-264.998 -168.867)" fill="#8985a8"/>
    <path id="Path_149" data-name="Path 149" d="M588.309,267.7a10.088,10.088,0,0,0-4.465.2,11.643,11.643,0,0,0-3.173,2.082,37.138,37.138,0,0,1-5.425,3.594,12.659,12.659,0,0,0-4.221,2.959,8.98,8.98,0,0,0-1.191,2.255,27.024,27.024,0,0,0-1.421,14.708,6.762,6.762,0,0,0,.626,2.02c.976,1.8,3.133,2.508,4.949,3.451,3.449,1.79,6.063,4.805,8.892,7.47a17.387,17.387,0,0,0,3.513,2.708c4.036,2.2,8.969,1.483,13.5.7a2.433,2.433,0,0,0,2.428-2.456L605.9,291.31a26.243,26.243,0,0,0,.917-7.315c-.25-3.9-2.363-9.313-5.229-12.086C598.245,268.678,592.674,268.164,588.309,267.7Z" transform="translate(-244.32 -145.009)" fill="#2f2e41"/>
    <ellipse id="Ellipse_47" data-name="Ellipse 47" cx="26" cy="1.5" rx="26" ry="1.5" transform="translate(244.504 499.3)" fill="#0fabff"/>
    <ellipse id="Ellipse_48" data-name="Ellipse 48" cx="25.5" cy="1.5" rx="25.5" ry="1.5" transform="translate(239.504 502.3)" fill="#0fabff"/>
    <ellipse id="Ellipse_49" data-name="Ellipse 49" cx="13.976" cy="0.799" rx="13.976" ry="0.799" transform="translate(225.08 494.23)" fill="#0fabff"/>
    <ellipse id="Ellipse_50" data-name="Ellipse 50" cx="13.976" cy="0.799" rx="13.976" ry="0.799" transform="translate(275.098 511.884)" fill="#0fabff"/>
  </g>
</svg>
