<svg xmlns="http://www.w3.org/2000/svg" width="1091.768" height="540" viewBox="0 0 1091.768 540">
  <g id="Group_24" data-name="Group 24" transform="translate(-95.124 -1454.411)">
    <g id="pot_1_" transform="translate(339 1496.526)">
      <path id="Path_1" data-name="Path 1" d="M64.743,390.388c26.07-47.855,78.851-84.386,91.993-90.261,85.048-38.134,163.152-110.664,249.483-141.641s185.055-16.236,279.506,108.1C736.369,333.346,740,400,700.683,440.913c-146.8,153.071-321.068,203.061-505.055,138.543C159.3,566.744,122.439,549.44,85.471,514.938,40.169,472.851,44.229,428.2,64.743,390.388Z" transform="translate(-39.585 -142.034)" fill="#cce9ff" opacity="0.5"/>
      <path id="Path_2" data-name="Path 2" d="M67.6,340.785c33.115-43.305,90.8-71.427,104.687-75.277,89.839-24.807,178.075-84.686,268.127-102.115s185.339,12.083,259.8,149.484c39.952,73.78,33.329,140.288-11.751,174.718C519.895,616.656,340.11,639.645,168.124,547.8c-33.97-18.177-67.833-40.846-99.026-80.623C30.749,418.627,41.538,375,67.6,340.785Z" transform="translate(-39.833 -141.44)" fill="#cce9ff"/>
      <path id="Path_3" data-name="Path 3" d="M400.045,375.23l-5.938-30-3.229-16.459c-2.813-22.5-5.938-62.5-3.958-85,3.438-38.647-33.022-68.336-69.794-66.565-37.293,1.875-54.064,29.168-62.189,62.815-12.813,53.439,16.146,94.274-2.917,133.546a2.12,2.12,0,0,0,1.875,3.021c11.771.313,51.356-.208,51.356-.208V300.54a182.462,182.462,0,0,0,13.959,18.23l-12.292,71.252Z" transform="translate(-24.027 -140.678)" fill="#2a94f4"/>
      <path id="Path_4" data-name="Path 4" d="M338.258,328.454l55.835,24.688a46.338,46.338,0,0,1,25.834,30.209l52.814,190.006H200.858c-20,0-35.73-17.709-33.751-38.23l14.375-147.609a46.873,46.873,0,0,1,28.438-38.855L262.526,327.1Z" transform="translate(-28.566 -122.961)" fill="#0b4870"/>
      <path id="Path_5" data-name="Path 5" d="M331.8,572.82V529.277l-84.169-8.646,12.4-71.565-3.958-93.024L226.688,340s-37.189-1.354-45.21,46.981C179.707,411.565,167.1,534.59,167.1,534.59s-3.229,36.147,33.751,38.23c-.938,1.354,120.525,0,120.525,0Z" transform="translate(-30.271 -122.424)" fill="#0b4870"/>
      <path id="Path_6" data-name="Path 6" d="M330.394,329.7c2.813.625,29.584,13.125,33.126,30.314S350.5,404.6,305.81,386.16C302.685,386.264,330.394,329.7,330.394,329.7Z" transform="translate(-21.269 -128.586)" fill="#0fabff"/>
      <path id="Path_7" data-name="Path 7" d="M273.5,265.2s24.376-5.938,36.251-47.4C308.4,221.133,275.479,217.175,273.5,265.2Z" transform="translate(-23.766 -136.757)" fill="#064a6f"/>
      <path id="Path_8" data-name="Path 8" d="M340.589,306.13l-7.917,50s-30.313,30.314-43.439-5.313c-3.958-27.605,7.5-57.919,7.5-57.919Z" transform="translate(-22.552 -131.091)" fill="#fcd2b1"/>
      <path id="Path_9" data-name="Path 9" d="M340.339,306.892s1.667,23.751-40.314,14.584c-9.063-13.334-4.479-39.376-4.479-39.376Z" transform="translate(-22.203 -132.244)" fill="#efbd9c"/>
      <path id="Path_10" data-name="Path 10" d="M283.6,259.849s-.729,45.21,34.272,51.772c10.938,2.917,48.856,5.1,52.5-46.668.729-43.751,0-35.73,0-35.73H291.621Z" transform="translate(-22.473 -135.732)" fill="#fcd2b1"/>
      <path id="Path_11" data-name="Path 11" d="M309.5,529" transform="translate(-21.668 -114.542)" fill="#064a6f"/>
      <path id="Path_12" data-name="Path 12" d="M325.192,527.8s27.605,5.417,23.647,26.98c-15.1.729-25.938.417-25.938.417Z" transform="translate(-20.452 -114.592)" fill="#fcd2b1"/>
      <circle id="Ellipse_1" data-name="Ellipse 1" cx="4.896" cy="4.896" r="4.896" transform="translate(299.797 322.254)" fill="#0fabff"/>
      <circle id="Ellipse_2" data-name="Ellipse 2" cx="4.896" cy="4.896" r="4.896" transform="translate(300.117 378.311)" fill="#0fabff"/>
      <path id="Path_13" data-name="Path 13" d="M328.478,530.765,244.1,509.306l10.625-52.085,7.4-.521-11.875,49.377,78.544,23.647Z" transform="translate(-25.341 -117.557)" fill="#07354f"/>
      <g id="Group_3" data-name="Group 3" transform="translate(190.956 60.532)">
        <path id="Path_14" data-name="Path 14" d="M275.616,209.261c-20.938,18.751-21.146,45.522-22.084,71.565-.521,12.917-1.146,26.459-6.146,38.543-5.521,13.438-16.771,23.334-24.376,35.522-6.979,11.25-8.125,28.855,3.438,35.418,5.625,3.229,12.813,2.813,18.334,6.146,6.771,4.063,9.375,12.917,9.063,20.834s-2.917,15.626-4.063,23.438c-1.979,14.375,3.542,31.98,17.6,35.418,9.375,2.292,18.855-2.4,27.293-6.875,10.209-5.521,20.417-10.938,29.688-17.813,7.813-5.729,15-12.6,19.063-21.459,7.5-16.563,1.875-36.043-6.771-52.085-8.646-15.938-20.209-30.522-25.626-47.814-8.854-27.918-.312-58.023,2.5-87.19,1.042-11.459,1.042-23.959-5.625-33.439-13.751-19.688-45.21-5.1-41.147,17.917" transform="translate(-217.749 -200.246)" fill="#2a94f4"/>
      </g>
      <rect id="Rectangle_10" data-name="Rectangle 10" width="565.931" height="14.48" transform="translate(59.583 449.042)" fill="#2a94f4"/>
      <line id="Line_4" data-name="Line 4" y1="6.354" x2="52.085" transform="translate(26.04 156.695)" fill="none" stroke="#4c8dc8" stroke-miterlimit="10" stroke-width="0.5"/>
      <rect id="Rectangle_11" data-name="Rectangle 11" width="124.9" height="88.961" transform="translate(0 98.862) rotate(-18.089)" fill="#fff"/>
      <rect id="Rectangle_12" data-name="Rectangle 12" width="124.796" height="7.604" transform="translate(0.011 98.826) rotate(-18.089)" fill="#0fabff"/>
      <circle id="Ellipse_3" data-name="Ellipse 3" cx="1.563" cy="1.563" r="1.563" transform="translate(4.893 102.188)" fill="#f7f7f7"/>
      <circle id="Ellipse_4" data-name="Ellipse 4" cx="1.563" cy="1.563" r="1.563" transform="translate(10.414 100.372)" fill="#f7f7f7"/>
      <circle id="Ellipse_5" data-name="Ellipse 5" cx="1.563" cy="1.563" r="1.563" transform="translate(15.623 98.663)" fill="#fff"/>
      <rect id="Rectangle_13" data-name="Rectangle 13" width="115.316" height="71.773" transform="translate(8.563 111.974) rotate(-18.089)" fill="none" stroke="#cce9ff" stroke-miterlimit="10" stroke-width="1"/>
      <g id="Group_17" data-name="Group 17" transform="translate(15.831 85.14)">
        <g id="Group_4" data-name="Group 4" transform="translate(0 14.375)">
          <path id="Path_15" data-name="Path 15" d="M61.138,269.889,55.2,251.659l.313-.1L105.618,235.2l5.938,18.334-.313.1Zm-5.209-17.917,5.625,17.188,49.272-16.042L105.2,235.929Z" transform="translate(-55.2 -235.2)" fill="#2a94f4"/>
        </g>
        <g id="Group_5" data-name="Group 5" transform="translate(61.564 20.626)">
          <path id="Path_16" data-name="Path 16" d="M125.655,289.847l-.1-.312-11.25-34.48.313-.1,41.981-13.75.1.313,11.25,34.48-.313.1Zm-10.625-34.272,10.938,33.647,41.147-13.438-10.938-33.647Z" transform="translate(-114.3 -241.2)" fill="#2a94f4"/>
        </g>
        <g id="Group_6" data-name="Group 6" transform="translate(7.917 36.876)">
          <path id="Path_17" data-name="Path 17" d="M63.008,273.571l-.208-.521,49.793-16.25.208.521Z" transform="translate(-62.8 -256.8)" fill="#2a94f4"/>
        </g>
        <g id="Group_7" data-name="Group 7" transform="translate(60.627 16.146)">
          <path id="Path_18" data-name="Path 18" d="M113.5,250.963l-.1-.625L154.651,236.9l.208.521Z" transform="translate(-113.4 -236.9)" fill="#2a94f4"/>
        </g>
        <g id="Group_8" data-name="Group 8" transform="translate(58.752 10.417)">
          <path id="Path_19" data-name="Path 19" d="M111.808,245.463l-.208-.521L152.851,231.4l.208.625Z" transform="translate(-111.6 -231.4)" fill="#2a94f4"/>
        </g>
        <g id="Group_9" data-name="Group 9" transform="translate(56.981 5)">
          <path id="Path_20" data-name="Path 20" d="M110.108,240.263l-.208-.625L151.151,226.2l.208.521Z" transform="translate(-109.9 -226.2)" fill="#2a94f4"/>
        </g>
        <g id="Group_10" data-name="Group 10" transform="translate(55.314)">
          <path id="Path_21" data-name="Path 21" d="M108.508,235.463l-.208-.625L149.551,221.4l.208.521Z" transform="translate(-108.3 -221.4)" fill="#2a94f4"/>
        </g>
        <g id="Group_11" data-name="Group 11" transform="translate(9.688 42.293)">
          <path id="Path_22" data-name="Path 22" d="M64.708,278.876l-.208-.625L114.293,262l.208.521Z" transform="translate(-64.5 -262)" fill="#2a94f4"/>
        </g>
        <g id="Group_12" data-name="Group 12" transform="translate(11.355 47.397)">
          <path id="Path_23" data-name="Path 23" d="M66.308,283.775l-.208-.625,49.793-16.25.208.625Z" transform="translate(-66.1 -266.9)" fill="#2a94f4"/>
        </g>
        <g id="Group_13" data-name="Group 13" transform="translate(13.125 52.71)">
          <path id="Path_24" data-name="Path 24" d="M68.008,288.876l-.208-.521L117.593,272l.208.625Z" transform="translate(-67.8 -272)" fill="#2a94f4"/>
        </g>
        <g id="Group_14" data-name="Group 14" transform="translate(14.896 58.231)">
          <path id="Path_25" data-name="Path 25" d="M69.708,294.071l-.208-.521L119.293,277.3l.208.521Z" transform="translate(-69.5 -277.3)" fill="#2a94f4"/>
        </g>
        <g id="Group_15" data-name="Group 15" transform="translate(16.563 63.335)">
          <path id="Path_26" data-name="Path 26" d="M71.308,298.971l-.208-.521L120.893,282.2l.208.521Z" transform="translate(-71.1 -282.2)" fill="#2a94f4"/>
        </g>
        <g id="Group_16" data-name="Group 16" transform="translate(18.542 68.648)">
          <path id="Path_27" data-name="Path 27" d="M73.208,304.176,73,303.655,122.793,287.3l.1.625Z" transform="translate(-73 -287.3)" fill="#2a94f4"/>
        </g>
      </g>
      <rect id="Rectangle_14" data-name="Rectangle 14" width="124.9" height="88.961" transform="translate(0 98.862) rotate(-18.089)" fill="none" stroke="#2a94f4" stroke-miterlimit="10" stroke-width="1"/>
      <path id="Path_28" data-name="Path 28" d="M226.263,164.633h-5.834V158.8h-2.4v5.834H212.2v2.4h5.834v5.834h2.4v-5.834h5.834Z" transform="translate(-28.19 -141.442)" fill="#2a94f4"/>
      <path id="Path_29" data-name="Path 29" d="M449.167,338.692h-4.792V333.9H442.4v4.792h-4.9v1.979h4.9v4.792h1.979v-4.792h4.792Z" transform="translate(-12.775 -128.959)" fill="#2a94f4"/>
      <path id="Path_30" data-name="Path 30" d="M88.163,422.333H82.329V416.5h-2.4v5.834H74.1v2.4h5.834v5.834h2.4v-5.834h5.834Z" transform="translate(-38.581 -123.241)" fill="#0fabff"/>
      <path id="Path_31" data-name="Path 31" d="M638.263,382.642H627.326V371.6h-4.583v11.042H611.7v4.479h11.042v11.042h4.583V387.121h10.938Z" transform="translate(0.793 -126.151)" fill="#0fabff"/>
      <g id="Group_18" data-name="Group 18" transform="translate(423.04)">
        <path id="Path_32" data-name="Path 32" d="M486.858,160.577a26.654,26.654,0,0,0-34.9,15.521c-2.708,7.5-1.563,15.625,1.354,24.272a14.721,14.721,0,0,1-.208,9.688l-.1.313a8.692,8.692,0,0,0,5.208,11.146l8.854,3.229a8.692,8.692,0,0,0,11.146-5.208,14.308,14.308,0,0,1,6.354-7.6c8.75-5,15.521-10.625,17.917-19.48A26.681,26.681,0,0,0,486.858,160.577Z" transform="translate(-433.979 -141.449)" fill="#0fabff"/>
        <path id="Path_33" data-name="Path 33" d="M479.922,221.746l-2.5-.938,1.25-3.438L453.359,208.1l-1.25,3.438-1.875-.729a1.9,1.9,0,0,0-2.4,1.146l-.625,1.771a1.9,1.9,0,0,0,1.146,2.4l1.875.729-.833,2.292-1.875-.729a1.9,1.9,0,0,0-2.4,1.146l-.625,1.771a1.9,1.9,0,0,0,1.146,2.4l1.979.729a6.049,6.049,0,0,0,3.854,6.563l.625.208a7.265,7.265,0,0,0,4.688,7.917,7.118,7.118,0,0,0,8.646-3.021,5.964,5.964,0,0,0,7.188-2.5l2.6.938a1.9,1.9,0,0,0,2.4-1.146l.625-1.771a1.9,1.9,0,0,0-1.146-2.4l-2.5-.938.833-2.292,2.5.938a1.9,1.9,0,0,0,2.4-1.146l.625-1.771A1.629,1.629,0,0,0,479.922,221.746Z" transform="translate(-434.23 -139.387)" fill="#0b4870"/>
        <path id="Path_34" data-name="Path 34" d="M489.678,155.745l-3.75-1.354a1.084,1.084,0,0,1-.625-1.354l3.75-10.209a1.084,1.084,0,0,1,1.354-.625l3.75,1.354a1.084,1.084,0,0,1,.625,1.354l-3.75,10.209A1,1,0,0,1,489.678,155.745Z" transform="translate(-432.527 -142.137)" fill="#0fabff"/>
        <path id="Path_35" data-name="Path 35" d="M505.5,194.478l1.354-3.75a1.084,1.084,0,0,1,1.354-.625l10.209,3.75a1.084,1.084,0,0,1,.625,1.354l-1.354,3.75a1.084,1.084,0,0,1-1.354.625l-10.209-3.75A1,1,0,0,1,505.5,194.478Z" transform="translate(-431.685 -140.14)" fill="#0fabff"/>
        <path id="Path_36" data-name="Path 36" d="M434.7,168.578l1.354-3.75a1.084,1.084,0,0,1,1.354-.625l10.209,3.75a1.084,1.084,0,0,1,.625,1.354l-1.354,3.75a1.084,1.084,0,0,1-1.354.625l-10.209-3.75A1.084,1.084,0,0,1,434.7,168.578Z" transform="translate(-434.637 -141.22)" fill="#0fabff"/>
        <path id="Path_37" data-name="Path 37" d="M506.17,175.091l-1.667-3.646a1.2,1.2,0,0,1,.521-1.458l9.9-4.583a1.2,1.2,0,0,1,1.458.521l1.667,3.646a1.2,1.2,0,0,1-.521,1.458l-9.9,4.583A1.036,1.036,0,0,1,506.17,175.091Z" transform="translate(-431.727 -141.17)" fill="#0fabff"/>
        <path id="Path_38" data-name="Path 38" d="M458.045,157.545l3.646-1.667a1.158,1.158,0,0,0,.521-1.458l-4.583-9.9A1.158,1.158,0,0,0,456.17,144l-3.646,1.667a1.158,1.158,0,0,0-.521,1.458l4.583,9.9A1.2,1.2,0,0,0,458.045,157.545Z" transform="translate(-433.917 -142.063)" fill="#f6b95f"/>
      </g>
      <rect id="Rectangle_15" data-name="Rectangle 15" width="133.754" height="62.919" transform="translate(463.274 143.148) rotate(-11.117)" fill="none" stroke="#2a94f4" stroke-miterlimit="10" stroke-width="1"/>
      <rect id="Rectangle_16" data-name="Rectangle 16" width="7.917" height="7.917" transform="translate(465.411 202.202) rotate(-11.117)" fill="#fff" stroke="#4c8dc8" stroke-miterlimit="10" stroke-width="0.75"/>
      <rect id="Rectangle_17" data-name="Rectangle 17" width="7.917" height="7.917" transform="translate(453.559 140.423) rotate(-11.117)" fill="#fff" stroke="#4c8dc8" stroke-miterlimit="10" stroke-width="0.75"/>
      <rect id="Rectangle_18" data-name="Rectangle 18" width="7.917" height="7.917" transform="translate(589.695 113.827) rotate(-11.117)" fill="#fff" stroke="#4c8dc8" stroke-miterlimit="10" stroke-width="0.75"/>
      <rect id="Rectangle_19" data-name="Rectangle 19" width="7.917" height="7.917" transform="translate(601.988 176.881) rotate(-11.117)" fill="#fff" stroke="#4c8dc8" stroke-miterlimit="10" stroke-width="0.75"/>
      <g id="Group_19" data-name="Group 19" transform="translate(477.801 138.46)">
        <path id="Path_39" data-name="Path 39" d="M485.838,309.538,482.4,292.246l5.417-1.042,3.646,18.646a5.028,5.028,0,0,0,1.667,3.021,3.924,3.924,0,0,0,3.125.625,3.841,3.841,0,0,0,2.708-1.771,4.7,4.7,0,0,0,.417-3.438l-3.646-18.646,5.417-1.042,3.438,17.292c.729,3.75.521,6.563-.625,8.542s-3.333,3.334-6.667,3.958c-3.229.625-5.833.313-7.6-1.146S486.567,313.288,485.838,309.538Z" transform="translate(-482.4 -270.683)" fill="#2a94f4"/>
        <path id="Path_40" data-name="Path 40" d="M506.238,292.521l-.938-4.792,16.25-3.229.938,4.792-5.417,1.042,3.542,17.813,5.417-1.042.938,4.792-16.25,3.229-.938-4.792,5.417-1.042-3.542-17.813Z" transform="translate(-481.445 -270.854)" fill="#2a94f4"/>
        <path id="Path_41" data-name="Path 41" d="M540.134,280.933l4.063-.833-8.334,33.647-4.063.833Z" transform="translate(-480.34 -271.037)" fill="#2a94f4"/>
        <path id="Path_42" data-name="Path 42" d="M550.938,296.738,547.5,279.446l5.417-1.042,3.646,18.646a5.028,5.028,0,0,0,1.667,3.021,3.924,3.924,0,0,0,3.125.625,3.841,3.841,0,0,0,2.708-1.771,4.7,4.7,0,0,0,.417-3.438l-3.646-18.647,5.417-1.042,3.438,17.292c.729,3.75.521,6.563-.625,8.542s-3.333,3.333-6.667,3.958c-3.229.625-5.834.313-7.6-1.146C552.917,302.988,551.563,300.488,550.938,296.738Z" transform="translate(-479.685 -271.217)" fill="#2a94f4"/>
        <path id="Path_43" data-name="Path 43" d="M594.772,298.588l-5.625,1.146-6.979-8.021-3.438,10.1-5.625,1.146,5.313-15.417L568,275.671l5.625-1.146,6.667,7.709,3.334-9.688,5.625-1.146-5.1,15Z" transform="translate(-478.83 -271.4)" fill="#2a94f4"/>
      </g>
      <path id="Path_44" data-name="Path 44" d="M557.229,414h-159.9a21.3,21.3,0,0,0-21.147,18.855L361.7,558.588H309.3a5.113,5.113,0,0,0-5.1,5.1h0a5.113,5.113,0,0,0,5.1,5.1H563.271l15-130.942A21.239,21.239,0,0,0,557.229,414Z" transform="translate(-17.218 -119.338)" fill="#0fabff"/>
      <circle id="Ellipse_6" data-name="Ellipse 6" cx="19.792" cy="19.792" r="19.792" transform="translate(433.54 358.831)" fill="#f7f7f7"/>
    </g>
    <text id="Design" transform="matrix(0.985, 0.174, -0.174, 0.985, 227.048, 1655.72)" fill="#2a94f4" font-size="40" font-family="Roboto-Regular, Roboto"><tspan x="-61.133" y="0">Design</tspan></text>
    <text id="User_Interface" data-name="User Interface" transform="translate(1158.892 1711.415) rotate(90)" fill="#2a94f4" font-size="30" font-family="Roboto-Regular, Roboto"><tspan x="-93.75" y="0">User Interface</tspan></text>
    <text id="Graphic_Design" data-name="Graphic Design" transform="translate(275.642 1864.479) rotate(-30)" fill="#0b4870" font-size="18" font-family="Roboto-Regular, Roboto"><tspan x="-60.535" y="0">Graphic Design</tspan></text>
    <text id="Typography" transform="translate(407.892 1844.849) rotate(90)" fill="#2a94f4" font-size="18" font-family="Roboto-Regular, Roboto"><tspan x="-46.573" y="0">Typography</tspan></text>
    <text id="Iconography" transform="matrix(0.766, 0.643, -0.643, 0.766, 126.928, 1763.002)" fill="#0b4870" font-size="14" font-family="Roboto-Regular, Roboto"><tspan x="-38.476" y="0">Iconography</tspan></text>
    <text id="User_Experience" data-name="User Experience" transform="translate(266.892 1489.813)" fill="#0b4870" font-size="28" font-family="Roboto-Bold, Roboto" font-weight="700"><tspan x="-102.115" y="0">User Experience</tspan></text>
    <text id="Information_Architecture" data-name="Information Architecture" transform="translate(760.392 1471.411)" fill="#0b4870" font-size="18" font-family="Roboto-Regular, Roboto"><tspan x="-97.686" y="0">Information Architecture</tspan></text>
    <text id="Wireframing" transform="translate(1000.264 1836.266) rotate(10)" fill="#0b4870" font-size="18" font-family="Roboto-Regular, Roboto"><tspan x="-48.876" y="0">Wireframing</tspan></text>
    <text id="Prototyping" transform="translate(1072.392 1555.401)" fill="#0b4870" font-size="18" font-family="Roboto-Regular, Roboto"><tspan x="-46.2" y="0">Prototyping</tspan></text>
  </g>
</svg>
